<svg width="32" height="32" viewBox="0 0 32 32" fill="#1a120b" xmlns="http://www.w3.org/2000/svg">
<g clip-path="url(#clip0_1971_678)">
<path d="M13.2656 9.77864C15.2557 10.519 17.6453 8.96262 18.6035 6.30266C19.5612 3.64263 18.7244 0.886795 16.7346 0.146893C14.744 -0.592432 12.3546 0.963485 11.3965 3.62345C10.4388 6.28348 11.2756 9.03931 13.2656 9.77864Z" fill="#1a120b"/>
<path d="M5.45231 13.952C7.64716 13.7704 9.22349 11.3905 8.97404 8.63466C8.72406 5.87973 6.74206 3.79329 4.54721 3.97386C2.35256 4.15601 0.776299 6.53635 1.02601 9.29179C1.27606 12.0467 3.25772 14.1331 5.45231 13.952Z" fill="#1a120b"/>
<path d="M21.5545 13.5706C23.3025 14.5842 25.8141 13.5662 27.1649 11.2979C28.5157 9.02804 28.1937 6.36829 26.4455 5.35471C24.6976 4.34203 22.1855 5.36049 20.8349 7.62883C19.4842 9.89825 19.8066 12.5579 21.5545 13.5706Z" fill="#1a120b"/>
<path d="M31.487 16.2788C30.3352 14.6413 27.617 14.5147 25.4152 15.9969C23.2128 17.4801 22.3618 20.0093 23.5133 21.6472C24.6647 23.2846 27.3832 23.4113 29.5851 21.9286C31.7867 20.4459 32.6382 17.9167 31.487 16.2788Z" fill="#1a120b"/>
<path d="M19.1015 17.0126C18.8841 15.4943 17.962 14.1097 16.4883 13.4074C15.0148 12.7057 13.3696 12.8677 12.0706 13.6629C10.6349 14.5424 9.71654 15.6913 8.47999 16.1935C7.24361 16.6956 3.78052 15.2001 1.62435 19.1523C0.101517 21.9438 1.49946 25.4728 4.35429 26.8326C6.52418 27.8661 8.24155 27.7507 9.50233 28.3509C10.7629 28.9511 11.7665 30.363 13.9362 31.3964C16.7909 32.7562 20.3782 31.6024 21.5449 28.6411C23.1967 24.4486 19.8511 22.701 19.4488 21.4184C19.0469 20.1359 19.3418 18.6899 19.1015 17.0126Z" fill="#1a120b"/>
</g>
<defs>
<clipPath id="clip0_1971_678">
<rect width="32" height="32" fill="#1a120b"/>
</clipPath>
</defs>
</svg>
