<svg width="60" height="60" viewBox="0 0 60 60" fill="#1a120b" xmlns="http://www.w3.org/2000/svg">
<path d="M49.9502 22.6562L51.8252 22.6636V22.6562H49.9502ZM10.0499 22.6562H8.17483L8.17486 22.6636L10.0499 22.6562ZM47.7482 26.6505L46.317 27.8618L46.5285 28.1118L46.8125 28.2752L47.7482 26.6505ZM47.0697 23.4887C46.235 22.8758 45.0615 23.0556 44.4487 23.8903C43.8357 24.725 44.0157 25.8985 44.8502 26.5112L47.0697 23.4887ZM15.1497 26.5112C15.9844 25.8985 16.1642 24.725 15.5513 23.8903C14.9384 23.0556 13.7649 22.8758 12.9302 23.4887L15.1497 26.5112ZM30 14.1409C28.0697 14.1409 26.976 14.2436 26.1092 14.3501C25.2602 14.4544 24.829 14.5312 24.015 14.5312V18.2812C25.1162 18.2812 25.827 18.1629 26.5665 18.0721C27.2882 17.9834 28.2295 17.8909 30 17.8909V14.1409ZM30 17.8909C31.7707 17.8909 32.7117 17.9834 33.4335 18.0721C34.173 18.1629 34.884 18.2812 35.985 18.2812V14.5312C35.171 14.5312 34.74 14.4544 33.8907 14.3501C33.0242 14.2436 31.9302 14.1409 30 14.1409V17.8909ZM35.985 18.2812C36.5172 18.2812 37.0142 18.1298 37.3735 17.9967C37.7627 17.8525 38.1655 17.6618 38.552 17.4627C39.3142 17.0701 40.1992 16.5454 41.0105 16.0781C41.8577 15.5903 42.66 15.1438 43.378 14.8193C44.1472 14.4717 44.5872 14.3753 44.7632 14.3753V10.6253C43.742 10.6253 42.6857 11.0171 41.834 11.4019C40.9312 11.8098 39.9877 12.3398 39.1392 12.8284C38.2547 13.3377 37.494 13.7894 36.8345 14.1292C36.5102 14.2962 36.2585 14.4107 36.071 14.4801C35.8537 14.5606 35.852 14.5312 35.985 14.5312V18.2812ZM44.7632 14.3753C45.6237 14.3753 46.45 14.6317 47.0305 15.1318C47.5592 15.5872 48.0752 16.4058 48.0752 17.969H51.8252C51.8252 15.4698 50.9445 13.554 49.4782 12.2907C48.0637 11.072 46.2965 10.6253 44.7632 10.6253V14.3753ZM48.0752 17.969V22.6562H51.8252V17.969H48.0752ZM24.015 14.5312C24.1481 14.5312 24.1464 14.5606 23.9291 14.4801C23.7417 14.4107 23.4899 14.2962 23.1656 14.1291C22.5062 13.7894 21.7453 13.3376 20.8609 12.8283C20.0123 12.3396 19.0688 11.8096 18.1661 11.4017C17.3144 11.0169 16.258 10.625 15.2369 10.625V14.375C15.4128 14.375 15.8526 14.4714 16.6219 14.819C17.3401 15.1435 18.1423 15.5901 18.9895 16.078C19.8009 16.5452 20.6858 17.07 21.448 17.4627C21.8344 17.6618 22.2372 17.8524 22.6265 17.9966C22.9859 18.1298 23.4829 18.2812 24.015 18.2812V14.5312ZM15.2369 10.625C13.7035 10.625 11.9363 11.0718 10.5218 12.2904C9.05538 13.5538 8.17486 15.4695 8.17486 17.9688H11.9249C11.9249 16.4055 12.4408 15.5869 12.9694 15.1315C13.5499 14.6313 14.3763 14.375 15.2369 14.375V10.625ZM8.17486 17.9688L8.17483 22.6562H11.9249V17.9688H8.17486ZM30 51.875C33.5775 51.875 38.8502 51.1635 43.3022 49.1155C47.7587 47.0655 51.8252 43.4335 51.8252 37.5H48.0752C48.0752 41.332 45.558 43.95 41.735 45.7088C37.9077 47.4693 33.2055 48.125 30 48.125V51.875ZM49.1797 25.4395C48.5925 24.7455 47.8937 24.0937 47.0697 23.4887L44.8502 26.5112C45.452 26.9532 45.9315 27.4063 46.317 27.8618L49.1797 25.4395ZM48.0752 22.6489C48.0732 23.1445 47.972 24.1752 47.729 24.8875C47.5935 25.2848 47.5155 25.2753 47.6567 25.1623C47.7687 25.0723 47.9755 24.9601 48.2505 24.9462C48.5127 24.9329 48.67 25.0175 48.6842 25.0257L46.8125 28.2752C47.2642 28.5355 47.818 28.7227 48.4397 28.6915C49.0742 28.6592 49.603 28.4083 50.0032 28.0873C50.7202 27.512 51.0827 26.6715 51.2782 26.098C51.6975 24.869 51.8222 23.3985 51.8252 22.6636L48.0752 22.6489ZM30 48.125C26.7945 48.125 22.0921 47.4693 18.2648 45.7088C14.442 43.9503 11.9248 41.332 11.9248 37.5H8.17483C8.17483 43.4335 12.2412 47.0655 16.6977 49.1155C21.1497 51.1635 26.4222 51.875 30 51.875V48.125ZM11.9248 37.5C11.9248 35.5297 11.7837 33.9073 11.9722 32.181C12.1485 30.5675 12.6053 29.1353 13.683 27.8618L10.8203 25.4395C9.11818 27.451 8.47413 29.6705 8.24441 31.7738C8.02698 33.7645 8.17483 35.924 8.17483 37.5H11.9248ZM13.683 27.8618C14.0684 27.4063 14.5479 26.9532 15.1497 26.5112L12.9302 23.4887C12.1062 24.0937 11.4075 24.7455 10.8203 25.4395L13.683 27.8618ZM8.17486 22.6636C8.17776 23.3985 8.30251 24.8689 8.72176 26.098C8.91733 26.6715 9.27963 27.512 9.99681 28.0873C10.3969 28.4083 10.9257 28.6592 11.5603 28.6915C12.1819 28.7227 12.7357 28.5355 13.1875 28.2752L11.3158 25.0257C11.3301 25.0175 11.4872 24.9329 11.7494 24.9462C12.0245 24.9601 12.2313 25.0723 12.3433 25.1623C12.4844 25.2753 12.4065 25.2848 12.271 24.8875C12.028 24.1752 11.9268 23.1445 11.9248 22.6489L8.17486 22.6636Z" fill="#1a120b"/>
<path d="M32.065 40C32.065 40.4315 31.1625 40.7812 30.049 40.7812C28.9355 40.7812 28.0327 40.4315 28.0327 40C28.0327 39.5685 28.9355 39.2188 30.049 39.2188C31.1625 39.2188 32.065 39.5685 32.065 40Z" stroke="#1a120b" stroke-width="3.75"/>
<path d="M38.7501 33.9845C38.7501 35.063 38.2086 35.9375 37.5403 35.9375C36.8723 35.9375 36.3308 35.063 36.3308 33.9845C36.3308 32.9057 36.8723 32.0312 37.5403 32.0312C38.2086 32.0312 38.7501 32.9057 38.7501 33.9845Z" stroke="#1a120b" stroke-width="3.75"/>
<path d="M23.7499 33.9845C23.7499 35.063 23.2083 35.9375 22.5402 35.9375C21.8721 35.9375 21.3306 35.063 21.3306 33.9845C21.3306 32.9057 21.8721 32.0312 22.5402 32.0312C23.2083 32.0312 23.7499 32.9057 23.7499 33.9845Z" stroke="#1a120b" stroke-width="3.75"/>
<path d="M55.001 38.672C53.7912 37.8905 48.5492 35.9375 46.5332 35.9375" stroke="#1a120b" stroke-width="3.75" stroke-linecap="round"/>
<path d="M50.9677 44.922C49.7582 44.1405 46.9354 42.1875 44.9194 42.1875" stroke="#1a120b" stroke-width="3.75" stroke-linecap="round"/>
<path d="M5 38.672C6.20967 37.8905 11.4516 35.9375 13.4678 35.9375" stroke="#1a120b" stroke-width="3.75" stroke-linecap="round"/>
<path d="M9.03198 44.922C10.2417 44.1405 13.0643 42.1875 15.0804 42.1875" stroke="#1a120b" stroke-width="3.75" stroke-linecap="round"/>
</svg>
