<svg width="47" height="60" viewBox="0 0 47 60" fill="#1a120b" xmlns="http://www.w3.org/2000/svg">
<path d="M44.9515 5.98522C44.2453 4.43061 43.3178 2.98182 42.0332 1.86139C40.7593 0.739906 39.0605 -0.00974292 37.1557 0.000218015C36.1836 -0.000719485 35.2659 0.204007 34.4541 0.556976C33.0271 1.17807 31.9501 2.20944 31.1243 3.31498C29.8882 4.98045 29.1564 6.86037 28.6916 8.34373C28.568 8.74323 28.4651 9.11108 28.3791 9.44237H24.9742H21.9292H18.5234C18.2741 8.4683 17.8657 7.14807 17.2269 5.77346C16.6069 4.45721 15.7792 3.08354 14.5717 1.96112C13.9684 1.40237 13.2634 0.909007 12.4494 0.556859C11.6374 0.20389 10.7188 -0.00095386 9.74766 0.000100827C7.85391 -0.00986011 6.15996 0.719046 4.88215 1.82166C2.95488 3.48514 1.80879 5.85362 1.0582 8.30319C0.317461 10.7626 0.00199219 13.3358 0 15.5332C0 18.8837 0 31.98 0 36.8533C0.0009375 38.7185 0.29086 41.0365 1.00969 43.5206C2.08957 47.237 4.14856 51.343 7.76801 54.5608C11.3786 57.7828 16.5595 60.0118 23.4513 60C28.0468 60.0019 31.881 59.0259 34.997 57.405C39.6805 54.9743 42.6779 51.1432 44.466 47.3189C46.2589 43.4789 46.8987 39.6449 46.9036 36.8532C46.9036 31.9799 46.9036 18.8836 46.9036 15.5331C46.8947 12.698 46.3499 9.10416 44.9515 5.98522ZM43.2486 36.8533C43.2496 38.3376 43.0063 40.3601 42.3833 42.502C41.4498 45.7239 39.6756 49.199 36.7098 51.8265C33.7362 54.4512 29.5796 56.3331 23.4513 56.3449C19.3662 56.343 16.158 55.4925 13.5918 54.1623C9.75176 52.1667 7.28836 49.0447 5.74664 45.7674C4.74984 43.6512 4.16836 41.4754 3.88254 39.5946C5.355 39.5946 7.92234 39.5946 11.4498 39.5946C17.2439 39.5946 21.1066 34.0181 21.1066 29.5115C21.1066 26.0454 21.1066 17.063 21.1066 13.0964H21.9294H24.9744H31.4044L31.6515 11.5616C31.6545 11.5131 32.049 9.27221 33.034 7.22424C33.5196 6.20061 34.1505 5.24143 34.8468 4.61448C35.1959 4.29807 35.5538 4.06076 35.9246 3.90244C36.2994 3.74424 36.6891 3.65612 37.1558 3.65518C38.1448 3.66502 38.8825 3.97955 39.637 4.62139C40.7565 5.57272 41.7356 7.38537 42.3457 9.44928C42.9677 11.5022 43.2516 13.7768 43.2487 15.5331C43.2486 18.8837 43.2486 31.98 43.2486 36.8533Z" fill="#1a120b"/>
<path d="M23.1467 41.1167C20.4557 41.1167 18.2742 42.7544 18.2742 44.7718C18.2742 46.7902 20.4557 48.4269 23.1467 48.4269C25.8385 48.4269 28.0201 46.7902 28.0201 44.7718C28.0202 42.7544 25.8386 41.1167 23.1467 41.1167Z" fill="#1a120b"/>
<path d="M32.5889 32.2847C34.2711 32.2847 35.6348 30.921 35.6348 29.2388C35.6348 27.5566 34.2711 26.1929 32.5889 26.1929C30.9067 26.1929 29.543 27.5566 29.543 29.2388C29.543 30.921 30.9067 32.2847 32.5889 32.2847Z" fill="#1a120b"/>
<path d="M37.0548 8.3252C35.0256 8.3252 34.6182 12.5894 34.6182 12.5894H39.0861C39.0861 12.5894 39.0841 8.3252 37.0548 8.3252Z" fill="#1a120b"/>
</svg>
