<svg width="60" height="60" viewBox="0 0 60 60" fill="none" xmlns="http://www.w3.org/2000/svg">
<path d="M12.5 24.4437V40.5C12.5 44.7005 12.5 46.8008 13.3175 48.405C14.0365 49.8163 15.1839 50.9635 16.5951 51.6825C18.1994 52.5 20.2996 52.5 24.5 52.5H35.5C39.7005 52.5 41.8005 52.5 43.405 51.6825C44.8162 50.9635 45.9635 49.8163 46.6825 48.405C47.5 46.8008 47.5 44.7005 47.5 40.5V12.5001M52.5 30L38.917 14.91C35.8278 11.4781 34.2833 9.76213 32.464 9.12863C30.8665 8.57223 29.1275 8.57236 27.5297 9.12901C25.7107 9.76276 24.1665 11.479 21.0778 14.9113L7.5 30" stroke="black" stroke-width="5" stroke-linecap="round" stroke-linejoin="round"/>
</svg>
