<svg width="32" height="32" viewBox="0 0 32 32" fill="none" xmlns="http://www.w3.org/2000/svg">
<g clip-path="url(#clip0_1969_669)">
<path d="M5.11111 12.0598V22.3268C5.11111 25.0127 5.11111 26.3557 5.61975 27.3815C6.06716 28.2839 6.78106 29.0175 7.65916 29.4773C8.6574 30 9.9642 30 12.5778 30H19.4222C22.0359 30 23.3425 30 24.3409 29.4773C25.219 29.0175 25.9328 28.2839 26.3802 27.3815C26.8889 26.3557 26.8889 25.0127 26.8889 22.3268V4.4226M30 15.6127L21.5484 5.96359C19.6262 3.7691 18.6651 2.67186 17.5332 2.26678C16.5392 1.91099 15.4571 1.91107 14.463 2.26702C13.3311 2.67226 12.3703 3.76966 10.4484 5.96444L2 15.6127" stroke="black" stroke-width="2.5" stroke-linecap="round" stroke-linejoin="round"/>
</g>
<defs>
<clipPath id="clip0_1969_669">
<rect width="32" height="32" fill="white"/>
</clipPath>
</defs>
</svg>
