<svg width="37" height="32" viewBox="0 0 37 32" fill="none" xmlns="http://www.w3.org/2000/svg">
<g clip-path="url(#clip0_147_2)">
<path fill-rule="evenodd" clip-rule="evenodd" d="M10.1959 23.0182L12.4583 25.2806L5.6711 32.0694L3.4071 29.807L10.1959 23.0182ZM22.6071 22.4694C17.3143 22.4694 13.0071 18.1622 13.0071 12.8694C13.0071 7.57497 17.3143 3.26937 22.6071 3.26937C27.9015 3.26937 32.2071 7.57497 32.2071 12.8694C32.2071 18.1622 27.9015 22.4694 22.6071 22.4694ZM22.6071 0.0693665C15.5383 0.0693665 9.8071 5.80057 9.8071 12.8694C9.8071 19.9382 15.5383 25.6694 22.6071 25.6694C29.6775 25.6694 35.4071 19.9382 35.4071 12.8694C35.4071 5.80057 29.6775 0.0693665 22.6071 0.0693665Z" fill="black"/>
</g>
<defs>
<clipPath id="clip0_147_2">
<rect width="37" height="32" fill="white"/>
</clipPath>
</defs>
</svg>
